<svg id="Layer_1" enable-background="new 0 0 512.115 512.115" height="512" viewBox="0 0 512.115 512.115" width="512" xmlns="http://www.w3.org/2000/svg"><g><path d="m437.077 75.038c-100.045-100.044-261.981-100.057-362.039 0-100.043 100.044-100.058 261.98 0 362.039 100.045 100.044 261.981 100.057 362.039 0 100.043-100.044 100.058-261.98 0-362.039zm-181.02 421.019c-132.336 0-240-107.664-240-240s107.664-240 240-240 240 107.664 240 240-107.663 240-240 240z"/><path d="m256.556 79.557c-61.421.001-111.662 49.967-111.997 111.383-.071 13.118 10.313 24.154 23.149 24.603 13.587.478 24.85-10.377 24.85-23.985 0-35.289 28.71-63.999 63.999-64 17.075 0 33.141 6.663 45.24 18.762 30.918 30.915 22.56 83.363-17.19 102.787-32.104 15.688-52.048 47.269-52.048 82.418v4.033c0 13.233 10.767 24 24 24 13.234 0 24-10.767 24-24v-4.033c0-16.664 9.626-31.72 25.122-39.291 37.871-18.505 62.877-57.146 62.878-100.674 0-61.86-50.137-112.005-112.003-112.003zm81.013 163.53c-9.539 14.969-22.996 26.992-38.914 34.771-21.032 10.276-34.097 30.84-34.097 53.666v4.033c0 4.411-3.589 8-8 8s-8-3.589-8-8v-4.033c0-28.988 16.504-55.061 43.073-68.043 27.711-13.541 44.927-41.1 44.927-71.922.001-44.174-35.823-80.002-80.001-80.002-44.112.001-79.999 35.889-79.999 80 0 2.189-.868 4.233-2.443 5.755-5.194 5.013-13.596 1.106-13.555-6.285.286-52.642 43.35-95.469 95.997-95.47 75.191-.002 121.878 83.405 81.012 147.53z"/><path d="m256.557 375.557c-17.645 0-32 14.355-32 32s14.355 32 32 32 32-14.355 32-32-14.354-32-32-32zm0 48c-8.822 0-16-7.178-16-16s7.178-16 16-16 16 7.178 16 16-7.177 16-16 16z"/></g></svg>