<?xml version="1.0"?>
<svg xmlns="http://www.w3.org/2000/svg" width="512" height="512" viewBox="0 0 512 512"><g><path d="M483.64,115.79a8.007,8.007,0,0,0-10.93,2.93l-12,20.79-13.85-8,12-20.79c.13-.23.25-.47.36-.71.08-.17.14-.35.21-.52a1.8,1.8,0,0,1,.08-.21c.07-.22.13-.44.19-.66a.292.292,0,0,1,.02-.09c.05-.23.09-.46.13-.69,0-.02.01-.05.01-.08.03-.22.04-.43.05-.65a.57.57,0,0,0,.01-.13c.01-.2,0-.4-.01-.6v-.19c-.01-.18-.04-.36-.06-.54l-.03-.24c-.03-.2-.08-.4-.13-.61l-.03-.15c-.02-.05-.04-.1-.06-.16-.05-.19-.11-.39-.18-.58-.03-.08-.07-.15-.1-.23-.07-.17-.14-.33-.21-.49-.03-.06-.07-.11-.1-.17-.09-.17-.18-.35-.29-.52a.607.607,0,0,0-.07-.1,5.142,5.142,0,0,0-.37-.54.265.265,0,0,1-.05-.06c-.15-.19-.3-.37-.46-.54-.01-.02-.04-.04-.05-.05a5.9,5.9,0,0,0-.51-.49.755.755,0,0,0-.14-.11c-.15-.13-.31-.26-.47-.38-.22-.16-.44-.3-.67-.44l12-20.78a24,24,0,0,0-41.57-24l-12,20.78a8.016,8.016,0,0,0-10.93,2.93L376,126.23V16a8,8,0,0,0-8-8H32a8,8,0,0,0-8,8V496a8,8,0,0,0,8,8H304a8.008,8.008,0,0,0,5.66-2.34l64-64A8.008,8.008,0,0,0,376,432V254.23l62.86-108.87,13.85,8-48,83.14a8,8,0,0,0,13.86,8l52-90.06,16-27.72A8,8,0,0,0,483.64,115.79ZM312,476.69V440h36.69ZM360,424H304a8,8,0,0,0-8,8v56H40V24H360V153.95L214.93,405.21a8.2,8.2,0,0,0-.87,2.23l-12.78,56.13a7.988,7.988,0,0,0,3.8,8.7l12.37,7.15a8.008,8.008,0,0,0,9.47-1.09l41.97-39.27a7.989,7.989,0,0,0,1.47-1.85L360,281.95Zm-132.52-3.45,23.37,13.48L220.32,462.6l-2.13-1.23Zm33.52.87-26.85-15.5a7.489,7.489,0,0,0-.9-.44L397.29,121.36l27.71,16ZM433,123.51l-27.71-16,8-13.86,27.71,16Zm-4.78-39.72,12-20.78a8,8,0,1,1,13.85,8l-12,20.78Z"/><path d="M187.294,81.53,152,107.2V96a8,8,0,0,0-8-8H64a8,8,0,0,0-8,8v80a8,8,0,0,0,8,8h80a8,8,0,0,0,8-8V126.983L196.706,94.47a8,8,0,1,0-9.412-12.94ZM136,168H72V104h64v14.835l-31.177,22.674L93.657,130.343a8,8,0,0,0-11.314,11.314l16,16a8,8,0,0,0,10.363.813L136,138.619Z"/><path d="M187.294,185.53,152,211.2V200a8,8,0,0,0-8-8H64a8,8,0,0,0-8,8v80a8,8,0,0,0,8,8h80a8,8,0,0,0,8-8V230.983l44.706-32.513a8,8,0,1,0-9.412-12.94ZM136,272H72V208h64v14.835l-31.177,22.674L93.657,234.343a8,8,0,0,0-11.314,11.314l16,16a8,8,0,0,0,10.363.813L136,242.619Z"/><path d="M187.294,289.53,152,315.2V304a8,8,0,0,0-8-8H64a8,8,0,0,0-8,8v80a8,8,0,0,0,8,8h80a8,8,0,0,0,8-8V334.983l44.706-32.513a8,8,0,0,0-9.412-12.94ZM136,376H72V312h64v14.835l-31.177,22.674L93.657,338.343a8,8,0,0,0-11.314,11.314l16,16a8,8,0,0,0,10.363.813L136,346.619Z"/></g></svg>
