<svg width="25" height="24" viewBox="0 0 25 24" fill="none" xmlns="http://www.w3.org/2000/svg">
<path d="M24.1281 10.392C24.1273 10.3914 24.1268 10.3907 24.1262 10.3902L14.3361 0.600404C13.9188 0.182923 13.364 -0.046875 12.7739 -0.046875C12.1837 -0.046875 11.6289 0.182923 11.2114 0.600404L1.42642 10.3852C1.42312 10.3885 1.41964 10.392 1.41653 10.3953C0.559594 11.2572 0.561059 12.6555 1.42074 13.5152C1.8135 13.9082 2.33206 14.1356 2.88669 14.1596C2.90939 14.1618 2.9321 14.1629 2.95499 14.1629H3.345V21.3674C3.345 22.7932 4.50516 23.9532 5.93101 23.9532H9.76121C10.1496 23.9532 10.4643 23.6382 10.4643 23.25V17.6016C10.4643 16.951 10.9937 16.4218 11.6443 16.4218H13.9034C14.554 16.4218 15.0832 16.951 15.0832 17.6016V23.25C15.0832 23.6382 15.3979 23.9532 15.7863 23.9532H19.6165C21.0426 23.9532 22.2025 22.7932 22.2025 21.3674V14.1629H22.5643C23.1543 14.1629 23.7091 13.9331 24.1268 13.5154C24.9874 12.6544 24.9878 11.2535 24.1281 10.392ZM23.1323 12.5211C22.9805 12.6729 22.7788 12.7566 22.5643 12.7566H21.4994C21.111 12.7566 20.7963 13.0714 20.7963 13.4597V21.3674C20.7963 22.0177 20.2671 22.5469 19.6165 22.5469H16.4894V17.6016C16.4894 16.1758 15.3295 15.0156 13.9034 15.0156H11.6443C10.2182 15.0156 9.05809 16.1758 9.05809 17.6016V22.5469H5.93101C5.28061 22.5469 4.75125 22.0177 4.75125 21.3674V13.4597C4.75125 13.0714 4.4365 12.7566 4.04813 12.7566H3.00149C2.99051 12.7559 2.97971 12.7553 2.96854 12.7552C2.75906 12.7515 2.56259 12.6684 2.41537 12.521C2.10226 12.2079 2.10226 11.6983 2.41537 11.385C2.41556 11.385 2.41556 11.3848 2.41574 11.3846L2.41629 11.3841L12.206 1.59467C12.3577 1.44287 12.5593 1.35938 12.7739 1.35938C12.9883 1.35938 13.1899 1.44287 13.3417 1.59467L23.1292 11.382C23.1307 11.3835 23.1323 11.385 23.1338 11.3864C23.4453 11.7001 23.4447 12.2086 23.1323 12.5211Z" fill="#AFAFBD"/>
</svg>
